<mxfile host="65bd71144e">
    <diagram id="piIeMQWpUwdeLsbxhuyu" name="Page-1">
        <mxGraphModel dx="1084" dy="513" grid="1" gridSize="10" guides="1" tooltips="1" connect="1" arrows="1" fold="1" page="1" pageScale="1" pageWidth="1200" pageHeight="800" math="0" shadow="0">
            <root>
                <mxCell id="0"/>
                <mxCell id="1" parent="0"/>
                <mxCell id="13" value="" style="group" parent="1" vertex="1" connectable="0">
                    <mxGeometry x="100" y="40" width="940" height="470" as="geometry"/>
                </mxCell>
                <mxCell id="5" value="&lt;span style=&quot;font-size: 30px;&quot;&gt;(Active Observation)&lt;br&gt;Diagnostics&lt;br&gt;&amp;lt;Perception&amp;gt;&lt;br&gt;&lt;/span&gt;" style="whiteSpace=wrap;html=1;rounded=1;fillColor=#09555B;strokeColor=#BAC8D3;fontColor=#EEEEEE;strokeWidth=2;" parent="13" vertex="1">
                    <mxGeometry x="313.33333333333337" width="313.33333333333337" height="156.66666666666669" as="geometry"/>
                </mxCell>
                <mxCell id="6" value="&lt;span style=&quot;font-size: 30px;&quot;&gt;(Forward Progress)&lt;br&gt;Coherent Actions&lt;br&gt;&amp;lt;Behavior&amp;gt;&lt;br&gt;&lt;/span&gt;" style="whiteSpace=wrap;html=1;rounded=1;fillColor=#09555B;strokeColor=#BAC8D3;fontColor=#EEEEEE;strokeWidth=2;" parent="13" vertex="1">
                    <mxGeometry x="626.6666666666667" y="313.33333333333337" width="313.33333333333337" height="156.66666666666669" as="geometry"/>
                </mxCell>
                <mxCell id="12" style="edgeStyle=none;orthogonalLoop=1;jettySize=auto;html=1;exitX=0.5;exitY=1;exitDx=0;exitDy=0;entryX=0;entryY=0.5;entryDx=0;entryDy=0;strokeColor=#0B4D6A;strokeWidth=2;" parent="13" source="5" target="6" edge="1">
                    <mxGeometry relative="1" as="geometry"/>
                </mxCell>
                <mxCell id="11" style="orthogonalLoop=1;jettySize=auto;html=1;exitX=1;exitY=0.5;exitDx=0;exitDy=0;entryX=0.5;entryY=1;entryDx=0;entryDy=0;strokeColor=#0B4D6A;strokeWidth=2;" parent="13" source="7" target="5" edge="1">
                    <mxGeometry relative="1" as="geometry"/>
                </mxCell>
                <mxCell id="7" value="&lt;span style=&quot;font-size: 30px;&quot;&gt;(Goal State)&lt;br&gt;Guiding Policies&lt;br&gt;&amp;lt;Purpose Driven&amp;gt;&lt;br&gt;&lt;/span&gt;" style="whiteSpace=wrap;html=1;rounded=1;fillColor=#09555B;strokeColor=#BAC8D3;fontColor=#EEEEEE;strokeWidth=2;" parent="13" vertex="1">
                    <mxGeometry y="313.33" width="313.33" height="156.67" as="geometry"/>
                </mxCell>
                <mxCell id="10" style="orthogonalLoop=1;jettySize=auto;html=1;exitX=0;exitY=0.5;exitDx=0;exitDy=0;entryX=1;entryY=0.5;entryDx=0;entryDy=0;strokeColor=#0B4D6A;strokeWidth=2;" parent="13" source="6" target="7" edge="1">
                    <mxGeometry relative="1" as="geometry"/>
                </mxCell>
            </root>
        </mxGraphModel>
    </diagram>
</mxfile>